PathFileType	4	(X/Y/Z)	C:\Users\chris\Documents\GitHub\baseballds\vids\pitch2_Sports2D\pitch2_Sports2D_m_person00.trc
DataRate	CameraRate	NumFrames	NumMarkers	Units	OrigDataRate	OrigDataStartFrame	OrigNumFrames
30	30	10	22	m	30	182	243
Frame#	Time	Hip			RHip			RKnee			RAnkle			RBigToe			RSmallToe			RHeel			LHip			LKnee			LAnkle			LBigToe			LSmallToe			LHeel			Neck			Head			Nose			RShoulder			RElbow			RWrist			LShoulder			LElbow			LWrist		
		X1	Y1	Z1	X2	Y2	Z2	X3	Y3	Z3	X4	Y4	Z4	X5	Y5	Z5	X6	Y6	Z6	X7	Y7	Z7	X8	Y8	Z8	X9	Y9	Z9	X10	Y10	Z10	X11	Y11	Z11	X12	Y12	Z12	X13	Y13	Z13	X14	Y14	Z14	X15	Y15	Z15	X16	Y16	Z16	X17	Y17	Z17	X18	Y18	Z18	X19	Y19	Z19	X20	Y20	Z20	X21	Y21	Z21	X22	Y22	Z22
182	6.066666666666666	0.4777351834996502	0.6621667588691801	0.0	0.481880774070078	0.5896924520657651	0.0	0.7841572328029344	0.2623328365291871	0.0	0.9003874186356355	-0.13393182505587825	0.0	1.1300522598290896	-0.08607451133769456	0.0	1.120609385819408	-0.1206210263260896	0.0	0.8921334597548574	-0.20974114692722098	0.0	0.5498056634524947	0.7252241878831994	0.0	0.5404806055520215	1.0681966110648877	0.0	0.9148051194670133	0.8399424708309384	0.0	1.0608955049494244	0.9846363729679518	0.0	1.0658418034814054	0.9667298031547963	0.0	0.9833184841142344	0.7485209402650872	0.0	0.0982434356891555	1.037491652455793	0.0	0.056917749075573995	1.2903076256190535	0.0	0.22422793096118077	1.1985430169165932	0.0	0.04134781173093435	0.8954105789040819	0.0	0.3414429392513469	0.8982499282800033	0.0	0.28072858125498185	1.1766262659118898	0.0	0.2227046384671598	1.0282749735856285	0.0	0.5079061809235835	1.0509831308563022	0.0	0.4406788571295726	1.2269904087675847	0.0
183	6.1	0.481958051276188	0.659618886470821	0.0	0.4823873391183799	0.5857830199209632	0.0	0.7902726280766524	0.2632341776135828	0.0	0.9020944174638914	-0.13424855566215962	0.0	1.1322928273855268	-0.08591311313866958	0.0	1.1164677398809164	-0.11955973113414396	0.0	0.8944272819359347	-0.20675091511185884	0.0	0.5529905176641268	0.719875221784839	0.0	0.555401464365227	1.0573523795727562	0.0	0.906886997828229	0.7983255001399173	0.0	1.0683051491701945	0.9263594081639114	0.0	1.0658723797229608	0.9134758953071879	0.0	0.9642733176227803	0.7049650412370472	0.0	0.10207542665597737	1.0312272822082686	0.0	0.059149448490824215	1.2839054472548406	0.0	0.22120914635340486	1.1988474974389012	0.0	0.04520815317356919	0.8871836686127275	0.0	0.3505963503906948	0.8889101050078572	0.0	0.2904173498343531	1.1661334343420944	0.0	0.236403372169945	1.0265310397364864	0.0	0.5216757864187475	1.050179039254844	0.0	0.45758168967007445	1.2203214758320016	0.0
184	6.133333333333333	0.4835531380363961	0.654413422081578	0.0	0.47464031997196493	0.5784792954568151	0.0	0.7948267573531289	0.26189564029043894	0.0	0.9014134465326065	-0.13476574138081782	0.0	1.1339215183041906	-0.08520518940167565	0.0	1.1106726594829954	-0.11876272458913258	0.0	0.8957673107580771	-0.20515936187545739	0.0	0.5533266753778154	0.7121813878366096	0.0	0.6031090652678462	1.035232980944899	0.0	0.9213533189120378	0.7373632672862712	0.0	1.0988170390888023	0.8498654330441965	0.0	1.0893256121591133	0.8430927192130254	0.0	0.9640565881411365	0.6439512555256228	0.0	0.10727619991627473	1.026848835944276	0.0	0.06394530160534243	1.278274980985961	0.0	0.22245873836227617	1.1982522538781635	0.0	0.04953803687917436	0.8802374858764542	0.0	0.3622405788427653	0.8777855822067449	0.0	0.30427691936840623	1.1512872747517513	0.0	0.2522581994794529	1.0259138998657322	0.0	0.538726841814777	1.0406699361378664	0.0	0.4692925185131721	1.2070063535566409	0.0
185	6.166666666666667	0.4838015957049353	0.6476687727486533	0.0	0.46561584068996115	0.5691971247324867	0.0	0.7978915062315114	0.25930869242808036	0.0	0.8995329614087062	-0.1359576197206967	0.0	1.1343243289235916	-0.08709917782543757	0.0	1.1071788431353309	-0.12091239448619212	0.0	0.8938122892594017	-0.20632069761311386	0.0	0.5535173170641282	0.7048903680525859	0.0	0.6713965485647139	0.9967727855465348	0.0	0.9539235236111124	0.662343556541717	0.0	1.1454394451538221	0.7537142551231909	0.0	1.1320347019348382	0.7536606559494268	0.0	0.9795229304162845	0.5743955429790455	0.0	0.11308969720926179	1.022967729286701	0.0	0.07315130809082158	1.2749084876513281	0.0	0.23135060683419748	1.1945570371091452	0.0	0.0553366220379953	0.8726098379261973	0.0	0.37616879624829647	0.8589356432378963	0.0	0.3199559229136362	1.1249645154302388	0.0	0.26185135921206293	1.022317875178283	0.0	0.552067639225134	1.0161411688007216	0.0	0.4816791651375814	1.1832501871971288	0.0
186	6.2	0.48500769431254287	0.640939460585454	0.0	0.4605899071805459	0.5606836115259048	0.0	0.8002020257092509	0.25911246069980176	0.0	0.8993376507834185	-0.13753424340551218	0.0	1.132352386360938	-0.08988863456073225	0.0	1.1047661280522134	-0.12464139015898426	0.0	0.8898909578144579	-0.20909342153980132	0.0	0.5572156429197845	0.699567921294699	0.0	0.7447700970223458	0.9388635422852885	0.0	0.9965293502095867	0.5828119080618513	0.0	1.2057505831669373	0.6447804863658424	0.0	1.1905978486388664	0.6515290027966311	0.0	1.0059336203164249	0.5030530358000119	0.0	0.12259096694821602	1.0206875498869874	0.0	0.08491971483306894	1.2732235398860774	0.0	0.24713760331045945	1.187895732354178	0.0	0.06264670579889503	0.8649984394325114	0.0	0.3873620508901472	0.8250351049561022	0.0	0.34158265543324007	1.082178643900235	0.0	0.26863463273280813	1.0179494236286888	0.0	0.5571159043635695	0.9746528371033241	0.0	0.4940159404323075	1.1457810463936935	0.0
187	6.233333333333333	0.4884012883642925	0.6338151090355009	0.0	0.45918240877134875	0.5522754578254018	0.0	0.8055191192889047	0.2623141919692933	0.0	0.9020908087453167	-0.13871562563868045	0.0	1.1296438329817926	-0.09048120196496238	0.0	1.10058578672131	-0.12718592468545753	0.0	0.8873546393398577	-0.21132451227645974	0.0	0.5649036414779495	0.693388879796825	0.0	0.8125316890897913	0.8640096965134532	0.0	1.0461661549035854	0.5035278056621465	0.0	1.2736796254246199	0.5371354602313099	0.0	1.2573509592765224	0.549014510175469	0.0	1.0436268235240405	0.42842003047835825	0.0	0.13868307927275975	1.0208332871367118	0.0	0.09661366773386601	1.271325796327198	0.0	0.26676153143948195	1.1818345145847182	0.0	0.07148619963678207	0.8586713652886435	0.0	0.38841448439120435	0.7739790408350716	0.0	0.3773961071487367	1.0266031991040876	0.0	0.281150727227839	1.0179884874700704	0.0	0.551230085862144	0.9262944774572818	0.0	0.5076081949590916	1.0951871763014391	0.0
188	6.266666666666667	0.49435563582940106	0.6245769323158976	0.0	0.4605232207395997	0.5397803288530505	0.0	0.8171525582408737	0.26651395758384805	0.0	0.9048110765809985	-0.13754915770547768	0.0	1.1300425516695287	-0.09076556939595626	0.0	1.0953757466405019	-0.1301152885271116	0.0	0.885417428205676	-0.21022008886011748	0.0	0.5754249931995338	0.6825479621877119	0.0	0.8704236399718525	0.7772501428434805	0.0	1.10237596523506	0.4265822838057627	0.0	1.3397411709111964	0.44187439930226974	0.0	1.3232940745482997	0.45735493995982424	0.0	1.0937469419318901	0.3522257022500288	0.0	0.1607335304217202	1.0208858736161643	0.0	0.10679715532976368	1.2666057788939828	0.0	0.28833752648251454	1.1797803162987708	0.0	0.08266208767573646	0.851167445199151	0.0	0.3767168377826898	0.711545419035638	0.0	0.42678814148170396	0.9653709924172325	0.0	0.30212839278058556	1.0226489979936932	0.0	0.5368406463631413	0.8862241032384596	0.0	0.5322724210567585	1.0353545300893314	0.0
189	6.3	0.5044044566240479	0.6118046876179816	0.0	0.4658026736586899	0.5232889380353776	0.0	0.8340837223778352	0.2711473265462348	0.0	0.9050187440634168	-0.1336812785920526	0.0	1.1341764257807623	-0.0924745175961091	0.0	1.0921035643780659	-0.13485422893930346	0.0	0.8820213486647629	-0.20537643497633243	0.0	0.588047620929435	0.6678781516943035	0.0	0.9182492279302358	0.6830683852463122	0.0	1.1620800236367634	0.3582069833081054	0.0	1.400045838777571	0.3641631469449883	0.0	1.3842540855620107	0.383290433840081	0.0	1.1525167854643563	0.2857696729325933	0.0	0.18590869764490342	1.017484333927068	0.0	0.11810189573308089	1.257388304967895	0.0	0.31024085643222105	1.1802838183653344	0.0	0.0987989626099857	0.8394330646798456	0.0	0.35770500069841527	0.6483340531659777	0.0	0.4792721417359411	0.899800135990443	0.0	0.32692538135962607	1.0254976759034165	0.0	0.5220689582114378	0.8653394638414071	0.0	0.5721940507803982	0.9740118827562437	0.0
190	6.333333333333333	0.5207826397799249	0.5942269228131725	0.0	0.4761687183616084	0.5074746334593969	0.0	0.8541702080595023	0.277039298996296	0.0	0.9052615255676716	-0.12940852441342082	0.0	1.138675587338767	-0.09357990145350334	0.0	1.0924042478688607	-0.13849386187314605	0.0	0.8796514374026854	-0.19894470950357182	0.0	0.603243037211215	0.6514294053716255	0.0	0.9563035403046299	0.5899589914186152	0.0	1.2196219400472554	0.30533767818617347	0.0	1.4542541012856718	0.30785821952862213	0.0	1.4380139265935366	0.32966956987156876	0.0	1.2132906712549651	0.2376814375889593	0.0	0.21237090962713595	1.008208923693704	0.0	0.13831124361495617	1.2457302743523306	0.0	0.3309829706341674	1.177028561340952	0.0	0.12163325732677994	0.8236542280802711	0.0	0.3386881145098833	0.5930687540764324	0.0	0.5270890913964331	0.826436222670166	0.0	0.3507379098970974	1.0194896111840277	0.0	0.5169506025343954	0.8644621306571704	0.0	0.6200552447451645	0.9200938323501436	0.0
191	6.366666666666666	0.5413303767584347	0.5722331589464059	0.0	0.4917841388237051	0.4933002995454474	0.0	0.8766447464631266	0.2838570544939874	0.0	0.9088339398899764	-0.12627709261699213	0.0	1.1410248714203293	-0.09297102575854292	0.0	1.0957661209713245	-0.13802452231085802	0.0	0.8817669493578445	-0.19323717925440825	0.0	0.621100368441692	0.6310975344351571	0.0	0.9835580517846869	0.5118636767603466	0.0	1.2687288843121574	0.2695359208426568	0.0	1.4993992970790044	0.27605171402108303	0.0	1.4808999197236001	0.29745559644603764	0.0	1.2696019466511843	0.20681584276568435	0.0	0.2399522441418407	0.992750346218292	0.0	0.17081514837706074	1.233715419531802	0.0	0.35241224489577866	1.1648135791626038	0.0	0.14887448922147267	0.8058771986261997	0.0	0.3220314473398739	0.5485925580339751	0.0	0.5668412647499207	0.7438366467917412	0.0	0.3723674301580334	1.0038082256228755	0.0	0.5282149302383334	0.8721674643743058	0.0	0.6737593325847495	0.878283352217764	0.0
